<?xml version="1.0" standalone="no"?>
<!DOCTYPE svg PUBLIC "-//W3C//DTD SVG 20010904//EN"
 "http://www.w3.org/TR/2001/REC-SVG-20010904/DTD/svg10.dtd">
<svg version="1.0" xmlns="http://www.w3.org/2000/svg"
 width="964.000000pt" height="964.000000pt" viewBox="0 0 964.000000 964.000000"
 preserveAspectRatio="xMidYMid meet">
<metadata>
Created by potrace 1.16, written by Peter Selinger 2001-2019
</metadata>
<g transform="translate(0.000000,964.000000) scale(0.100000,-0.100000)"
fill="#000000" stroke="none">
<path d="M5414 8948 c-33 -35 -35 -39 -120 -235 -127 -291 -250 -613 -234
-613 4 0 11 13 15 30 9 43 23 46 34 8 5 -18 10 -26 10 -18 1 8 23 60 50 115
78 162 183 408 227 533 10 28 23 52 27 52 7 0 106 -56 136 -77 2 -2 -4 -22
-13 -45 -54 -133 -236 -622 -233 -625 4 -3 99 236 209 525 40 104 55 132 69
132 30 0 30 -1 -81 -280 -158 -399 -203 -524 -175 -486 8 11 15 28 15 37 0 19
23 20 42 1 7 -7 20 -12 29 -12 10 0 24 -6 31 -13 7 -7 33 -19 58 -27 25 -8 56
-20 70 -27 14 -7 32 -13 41 -13 9 0 19 -7 23 -15 3 -9 18 -15 35 -15 16 0 37
-7 45 -16 9 -9 22 -17 29 -18 47 -8 88 -33 94 -56 l6 -25 13 30 c16 36 18 18
3 -22 -19 -50 3 -15 28 44 52 127 183 474 213 568 40 123 35 113 65 107 17 -3
25 -11 25 -25 0 -22 -126 -353 -206 -545 -24 -57 -41 -108 -38 -113 3 -5 0 -8
-6 -7 -7 2 -16 -8 -21 -22 -9 -24 -9 -24 7 -5 16 19 16 19 10 -6 l-6 -27 30
28 c30 28 43 53 16 31 -11 -10 -14 -9 -12 1 1 7 5 19 9 26 5 6 5 12 0 12 -4 1
5 8 21 16 35 19 53 7 37 -25 -7 -12 -16 -21 -21 -21 -5 0 -9 -16 -8 -35 1 -24
-5 -40 -18 -51 -10 -8 -12 -12 -4 -8 8 4 22 13 32 21 11 10 18 11 23 4 3 -6 3
-11 -2 -11 -4 0 3 -7 15 -16 12 -8 22 -23 22 -32 1 -37 103 197 249 573 45
116 88 225 96 243 14 30 13 36 -2 66 -38 73 -136 157 -241 210 -71 34 -383
151 -490 182 -59 17 -109 24 -166 24 -80 0 -83 -1 -112 -32z m145 -62 c71 -52
144 -89 348 -175 104 -43 223 -95 265 -114 42 -20 93 -39 112 -43 20 -3 36
-10 36 -15 0 -58 -534 145 -749 285 -57 37 -71 51 -71 71 0 14 3 25 6 25 4 0
27 -15 53 -34z"/>
<path d="M4085 8843 c-266 -59 -477 -122 -665 -199 -116 -47 -276 -119 -300
-134 -8 -5 -30 -17 -48 -26 -18 -9 -31 -19 -28 -21 5 -5 68 26 76 37 3 4 15
10 26 14 29 9 42 -23 18 -41 -22 -16 -31 -8 -14 12 16 19 -4 21 -24 3 -9 -9
-10 -17 -3 -29 8 -14 14 -14 36 -3 254 124 552 235 801 300 179 46 168 41 166
69 -1 25 -4 26 -41 18z"/>
<path d="M7680 7842 c0 -6 7 -17 15 -25 8 -8 11 -18 7 -21 -3 -4 1 -4 11 0 10
4 17 1 17 -6 0 -7 17 -28 38 -47 20 -19 29 -31 19 -27 -13 5 -16 2 -11 -11 6
-15 4 -16 -14 -6 -11 6 -24 16 -27 21 -3 6 -11 10 -17 10 -6 0 20 -33 58 -72
131 -138 296 -343 454 -564 l35 -49 3 44 c5 62 -1 78 -54 157 -60 89 -87 124
-210 269 -105 124 -324 345 -324 327z"/>
<path d="M4913 6583 c-81 -201 -178 -447 -189 -481 -10 -33 -10 -42 -1 -39 6
2 18 -3 26 -11 13 -12 16 -12 27 2 13 18 95 235 115 303 7 23 21 52 31 63 22
24 58 27 58 5 0 -21 -31 -120 -86 -273 -24 -67 -44 -130 -44 -140 1 -32 37 52
96 225 32 95 62 169 66 165 12 -12 -27 -157 -81 -296 -28 -72 -45 -124 -39
-118 18 18 38 15 31 -5 -4 -11 -3 -14 5 -9 7 4 12 2 12 -5 0 -6 8 -9 19 -6 15
3 18 1 14 -12 -3 -9 1 -7 11 6 21 27 47 88 103 238 80 214 104 287 99 292 -3
3 -8 -6 -11 -20 -4 -15 -14 -32 -23 -39 -14 -10 -15 -10 -4 2 6 8 11 28 11 45
-1 18 -3 23 -6 12 -3 -11 -10 -16 -20 -13 -8 3 -17 6 -19 6 -3 0 -2 5 1 10 9
14 -7 12 -30 -3 -33 -23 -55 -28 -55 -13 0 8 13 19 29 26 16 6 32 18 35 27 4
9 -5 7 -26 -8 -17 -13 -29 -18 -25 -12 4 6 1 16 -7 22 -16 14 -49 4 -39 -13 3
-6 3 -8 -2 -4 -4 4 -14 3 -20 -2 -9 -7 -14 -6 -18 4 -4 9 4 21 19 31 25 16 24
35 -2 35 -8 0 -19 -10 -24 -22 -7 -19 -9 -19 -9 -5 -1 10 -5 15 -11 12 -13 -8
-13 1 0 26 6 10 7 19 3 19 -5 0 -14 -12 -20 -27z"/>
<path d="M7273 6299 c-18 -5 -33 -12 -33 -15 0 -3 9 -2 21 1 20 7 20 6 5 -24
-18 -33 -21 -61 -7 -61 5 0 -6 -28 -25 -62 -18 -35 -33 -67 -33 -73 0 -5 13
15 29 46 15 30 35 61 44 68 9 7 13 18 9 24 -3 6 -1 7 6 3 6 -4 18 -3 26 4 10
8 19 8 34 -2 20 -12 21 -22 21 -153 0 -77 -5 -216 -10 -310 -5 -93 -12 -217
-15 -275 -3 -58 -9 -166 -14 -240 -5 -74 -9 -144 -9 -155 1 -31 -22 -218 -27
-224 -3 -2 -5 3 -5 11 0 8 -13 31 -30 49 -16 19 -30 29 -30 23 0 -6 10 -22 23
-36 13 -14 23 -36 23 -50 0 -22 -3 -24 -18 -15 -12 8 -14 13 -5 19 6 4 9 10 6
13 -4 3 -11 -1 -18 -9 -9 -11 -6 -18 15 -35 25 -20 26 -25 21 -83 -3 -39 -2
-56 4 -47 7 11 9 11 9 -3 0 -10 -4 -18 -8 -18 -5 0 -14 -24 -21 -52 -14 -61
-15 -75 -13 -145 2 -42 5 -51 17 -47 8 4 15 1 15 -5 0 -6 -5 -11 -11 -11 -7 0
-9 -11 -5 -27 l5 -28 -15 30 -15 30 6 -28 c5 -26 4 -27 -15 -17 -13 7 -20 7
-20 0 0 -5 7 -10 15 -10 8 0 15 -7 15 -16 0 -13 3 -14 13 -5 8 6 16 9 18 6 3
-2 25 95 50 216 l44 220 65 4 c36 3 88 9 115 16 71 15 217 90 300 151 120 89
364 345 350 367 -3 6 0 9 7 6 7 -3 22 8 33 24 11 16 47 59 80 96 33 38 68 77
78 89 38 44 166 172 193 194 16 13 48 35 72 49 48 29 57 41 12 18 -16 -8 -32
-14 -34 -13 -2 2 -13 -6 -25 -16 -12 -11 -24 -16 -28 -12 -8 7 34 39 55 43 18
2 29 13 14 13 -22 0 -12 27 13 38 14 6 25 16 25 22 0 5 -28 -9 -63 -33 -34
-23 -59 -43 -55 -45 18 -8 7 -23 -12 -17 -25 8 -26 -3 -2 -22 12 -10 14 -16 4
-19 -6 -3 -10 -10 -7 -15 4 -5 -2 -6 -11 -2 -13 5 -15 3 -9 -7 6 -10 4 -12 -9
-7 -10 4 -20 7 -22 7 -2 0 -4 4 -4 10 0 5 7 6 17 3 11 -4 14 -3 9 5 -5 8 -2
10 8 6 9 -3 16 -1 16 4 0 22 -21 22 -50 1 -24 -18 -27 -25 -17 -37 10 -12 9
-14 -8 -8 -16 5 -36 -9 -91 -67 -39 -39 -95 -103 -124 -142 -107 -142 -229
-286 -300 -354 -151 -146 -318 -242 -466 -268 -84 -14 -153 -11 -125 6 23 15
93 365 137 691 22 162 25 501 5 580 -22 86 -58 133 -122 155 -47 17 -69 17
-116 4z"/>
<path d="M135 5688 c-138 -14 -135 -13 -135 -53 0 -32 3 -35 28 -35 26 0 102
12 192 30 l45 9 -51 -4 c-27 -2 -57 1 -65 7 -11 8 -11 9 4 4 9 -3 17 -1 17 4
0 6 15 10 34 10 19 0 37 3 40 8 2 4 -14 6 -37 5 -35 -2 -33 0 13 8 113 19 73
23 -85 7z"/>
<path d="M4611 5699 c-6 -49 -24 -116 -35 -128 -8 -9 -38 -65 -66 -126 -102
-216 -106 -225 -69 -184 20 24 20 24 9 2 -7 -16 -7 -23 0 -23 5 0 10 4 10 8 0
5 7 9 15 9 8 0 12 -4 9 -9 -3 -4 4 -8 15 -8 12 0 21 -5 21 -11 0 -5 4 -8 8 -5
5 3 15 -4 22 -15 19 -25 33 -25 25 1 -4 11 -2 20 4 20 6 0 11 -12 12 -27 0
-27 1 -27 9 -5 5 12 14 22 20 22 6 0 9 -3 7 -7 -11 -21 -20 -51 -23 -78 -3
-23 1 -19 16 18 20 51 65 196 96 306 11 40 33 84 58 115 21 28 44 57 50 65 9
12 8 12 -11 0 -13 -8 -23 -19 -23 -26 0 -7 -5 -13 -11 -13 -5 0 -7 5 -3 12 5
8 2 9 -9 5 -10 -4 -22 1 -30 14 -12 17 -15 18 -20 4 -4 -9 -19 -15 -38 -15
-31 0 -32 0 -26 43 2 23 3 36 0 29 -3 -6 -9 -10 -14 -6 -5 3 -9 -1 -10 -8 0
-7 -4 -4 -9 7 -5 11 -9 17 -9 14z"/>
<path d="M941 5045 c-1 -71 -2 -191 -1 -265 4 -485 111 -989 307 -1450 51
-118 191 -398 210 -418 7 -7 13 -17 13 -21 0 -4 8 -16 18 -27 10 -10 19 -23
20 -27 2 -15 74 -128 78 -124 3 3 -5 21 -17 41 -27 46 -19 58 10 14 44 -70 18
-6 -32 78 -321 533 -504 1072 -578 1699 -6 55 -14 219 -18 365 -6 192 -8 229
-10 135z"/>
<path d="M4913 4854 c-64 -23 -125 -83 -147 -144 -37 -102 -7 -202 106 -360
37 -52 68 -99 68 -105 0 -5 -26 -28 -56 -50 -51 -36 -176 -153 -231 -217 -39
-45 -96 -160 -83 -168 8 -5 10 -18 4 -41 l-8 -34 -7 30 c-4 21 -7 8 -7 -40 1
-53 2 -62 8 -35 l6 35 8 -28 c5 -15 6 -31 2 -34 -3 -3 0 -13 7 -21 10 -13 9
-15 -5 -9 -15 5 -16 3 -5 -21 18 -42 38 -72 49 -72 5 0 7 4 3 9 -3 5 -1 12 4
16 6 3 8 -5 5 -19 -4 -22 2 -29 38 -46 103 -51 223 -43 358 22 101 49 199 141
245 230 17 32 33 58 36 58 14 0 78 -139 89 -192 9 -44 9 -71 0 -113 -12 -60
-8 -75 20 -75 14 0 21 12 29 50 26 120 5 210 -74 331 -46 68 -47 72 -42 129 3
43 1 63 -9 71 -21 17 -44 -7 -44 -44 l0 -31 -46 44 c-80 78 -194 212 -200 236
-5 18 1 30 27 51 173 144 257 304 229 437 -13 64 -71 127 -139 151 -55 19
-182 18 -238 -1z m156 -55 c20 -11 48 -36 61 -56 22 -32 25 -47 25 -122 0 -80
-3 -91 -42 -171 -45 -91 -120 -185 -130 -162 -4 11 -55 78 -119 157 -38 47
-58 109 -58 185 -1 89 16 127 71 165 49 33 137 35 192 4z m-51 -651 c22 -29
86 -100 141 -158 95 -98 101 -107 97 -141 -11 -100 -123 -248 -219 -289 -91
-39 -227 -21 -280 38 -30 33 -56 106 -57 162 -4 111 72 253 199 373 39 37 73
67 75 67 2 0 22 -24 44 -52z"/>
<path d="M3207 2738 c-8 -18 -38 -101 -67 -185 -46 -133 -55 -152 -77 -158
-38 -9 -20 -18 42 -21 42 -1 55 1 55 12 0 8 -7 14 -16 14 -18 0 -16 28 5 83
10 25 14 27 71 27 l61 0 19 -42 c25 -54 25 -64 0 -71 -44 -11 -16 -23 55 -23
75 0 95 9 53 25 -17 6 -38 48 -94 187 -39 98 -77 180 -83 182 -5 2 -16 -12
-24 -30z"/>
<path d="M4324 2752 c-47 -23 -69 -64 -59 -111 7 -34 43 -65 119 -102 75 -37
95 -80 56 -119 -15 -15 -33 -20 -75 -20 l-55 0 -6 40 c-9 55 -31 52 -40 -5 -3
-25 -3 -49 0 -53 10 -9 140 -16 169 -8 13 3 36 17 50 30 22 20 27 34 27 69 0
58 -18 78 -108 122 -73 36 -94 60 -84 97 7 29 43 48 89 48 41 0 42 -1 45 -37
4 -52 29 -51 40 1 5 22 5 43 0 48 -4 4 -35 10 -67 13 -47 5 -69 2 -101 -13z"/>
<path d="M5223 2759 c-43 -12 -73 -53 -73 -98 1 -49 14 -64 106 -114 74 -41
79 -46 82 -80 4 -48 -27 -69 -95 -65 -48 3 -48 3 -51 41 -6 68 -41 38 -42 -35
0 -35 24 -42 121 -36 65 3 74 6 100 36 21 24 29 43 29 70 0 46 -29 77 -110
117 -71 35 -90 53 -90 82 0 40 34 64 88 61 46 -3 47 -3 50 -40 6 -68 41 -39
42 33 0 23 -5 27 -37 33 -49 8 -80 6 -120 -5z"/>
<path d="M5629 2589 c-52 -149 -67 -183 -86 -190 -39 -15 -25 -24 37 -25 44
-1 60 3 60 13 0 7 -9 13 -21 13 -14 0 -19 5 -16 14 3 8 11 33 18 55 l12 42 65
-3 64 -3 19 -50 c10 -27 19 -51 19 -51 0 -1 -9 -4 -20 -7 -43 -11 -17 -23 48
-22 62 1 97 16 54 23 -15 2 -36 46 -92 188 -40 101 -78 184 -85 184 -7 0 -40
-81 -76 -181z"/>
<path d="M6534 2750 c-53 -26 -83 -68 -97 -135 -19 -92 12 -174 83 -222 39
-27 134 -32 179 -8 67 34 111 136 95 222 -24 131 -146 199 -260 143z m148 -37
c36 -38 48 -73 48 -141 0 -80 -16 -126 -52 -157 -26 -22 -39 -26 -71 -22 -79
11 -112 73 -105 198 4 65 9 83 32 113 24 32 32 36 75 36 39 0 52 -5 73 -27z"/>
<path d="M2550 2751 c0 -5 10 -11 23 -13 22 -3 22 -6 25 -166 l2 -162 -25 -10
c-42 -16 -28 -28 29 -26 59 2 84 13 49 22 -21 6 -22 13 -25 138 -2 72 -2 133
0 136 2 3 7 -2 12 -10 5 -8 41 -55 80 -105 39 -49 89 -114 112 -142 22 -29 45
-53 49 -53 5 0 9 86 9 190 0 183 1 190 20 190 11 0 20 5 20 10 0 6 -27 10 -60
10 -58 0 -80 -12 -41 -23 17 -4 19 -17 23 -128 4 -116 1 -151 -9 -122 -2 7
-47 67 -99 133 -52 67 -94 126 -94 131 0 5 -22 9 -50 9 -27 0 -50 -4 -50 -9z"/>
<path d="M3550 2750 c0 -5 9 -10 20 -10 19 0 20 -7 20 -169 0 -160 -1 -169
-20 -174 -43 -11 -17 -23 50 -23 51 0 70 4 70 13 0 7 -9 13 -20 13 -20 0 -20
5 -18 168 3 165 3 167 26 170 12 2 22 8 22 13 0 5 -34 9 -75 9 -43 0 -75 -4
-75 -10z"/>
<path d="M3850 2751 c0 -5 9 -11 20 -14 19 -5 20 -14 20 -170 0 -156 -1 -165
-20 -170 -11 -3 -20 -11 -20 -17 0 -8 8 -10 23 -6 12 3 73 6 135 6 l113 0 -3
42 c-4 50 -24 61 -33 19 -7 -31 -7 -31 -73 -31 l-67 0 3 165 c3 156 4 165 22
165 11 0 20 5 20 10 0 6 -30 10 -70 10 -38 0 -70 -4 -70 -9z"/>
<path d="M6030 2750 c0 -5 9 -10 20 -10 19 0 20 -7 20 -169 0 -160 -1 -169
-20 -174 -11 -3 -20 -11 -20 -17 0 -8 8 -10 23 -6 12 3 73 6 135 6 l112 0 0
45 c0 55 -26 64 -35 13 l-6 -33 -65 0 -64 0 0 168 c0 160 1 167 20 167 11 0
20 5 20 10 0 6 -30 10 -70 10 -40 0 -70 -4 -70 -10z"/>
<path d="M6940 2755 c0 -3 11 -10 25 -15 l25 -10 0 -164 0 -164 -26 -6 c-39
-10 -20 -20 42 -22 54 -2 72 9 34 21 -19 6 -20 15 -20 147 l0 141 29 -44 c40
-59 211 -273 222 -277 5 -2 9 79 9 187 0 184 1 191 20 191 11 0 20 5 20 10 0
6 -27 10 -60 10 -58 0 -84 -15 -37 -22 21 -3 22 -7 25 -138 l2 -135 -27 40
c-15 22 -62 84 -105 138 -43 54 -78 102 -78 108 0 5 -22 9 -50 9 -27 0 -50 -2
-50 -5z"/>
<path d="M8170 2637 c-41 -56 -79 -106 -85 -112 -6 -5 -23 -26 -37 -45 -36
-50 -205 -239 -312 -349 -50 -52 -83 -92 -74 -89 24 10 32 -21 11 -46 -28 -33
56 41 123 108 107 107 294 326 294 345 0 6 4 11 8 11 4 0 16 13 25 30 10 16
23 35 30 42 35 35 46 61 36 81 -9 15 -7 22 10 34 12 8 21 21 21 30 0 9 7 25
17 35 9 10 14 20 11 23 -2 2 -38 -41 -78 -98z"/>
<path d="M7170 1663 c-150 -98 -201 -130 -300 -185 -458 -260 -945 -416 -1505
-485 -71 -8 -150 -16 -175 -17 -111 -4 -119 -10 -25 -16 55 -3 109 -12 120
-19 12 -8 14 -11 4 -8 -9 3 -68 7 -130 10 -63 2 -94 3 -69 1 25 -2 61 -7 80
-10 30 -5 32 -8 15 -14 -11 -5 -31 -8 -45 -8 l-25 0 25 8 c22 7 20 8 -15 9
-38 0 -39 0 -20 -15 34 -27 283 -4 580 52 452 85 912 260 1300 494 163 98 213
136 213 166 0 15 -5 21 -12 17 -6 -3 -2 3 8 15 22 26 11 28 -24 5z"/>
</g>
</svg>
