<svg xmlns="http://www.w3.org/2000/svg" version="1.1" xmlns:xlink="http://www.w3.org/1999/xlink" xmlns:svgjs="http://svgjs.com/svgjs" width="1440" height="560" preserveAspectRatio="none" viewBox="0 0 1440 560"><g mask="url(&quot;#SvgjsMask1048&quot;)" fill="none"><rect width="240" height="240" clip-path="url(&quot;#SvgjsClipPath1049&quot;)" x="192.5" y="103.26" fill="url(#SvgjsPattern1050)" transform="rotate(79.11, 312.5, 223.26)"></rect><path d="M205.81 556.42a5.6 5.6 0 1 0-9.99 5.04 5.6 5.6 0 1 0 9.99-5.04zM191.53 563.63a5.6 5.6 0 1 0-10 5.04 5.6 5.6 0 1 0 10-5.04zM177.25 570.83a5.6 5.6 0 1 0-10 5.05 5.6 5.6 0 1 0 10-5.05zM162.96 578.04a5.6 5.6 0 1 0-10 5.05 5.6 5.6 0 1 0 10-5.05zM227.17 527.71a5.6 5.6 0 1 0-10 5.05 5.6 5.6 0 1 0 10-5.05zM212.89 534.92a5.6 5.6 0 1 0-10 5.05 5.6 5.6 0 1 0 10-5.05zM198.61 542.13a5.6 5.6 0 1 0-10 5.05 5.6 5.6 0 1 0 10-5.05zM184.32 549.34a5.6 5.6 0 1 0-10 5.05 5.6 5.6 0 1 0 10-5.05z" stroke="rgba(252, 159, 143, 1)" stroke-width="1" stroke-dasharray="3, 3"></path><rect width="132" height="132" clip-path="url(&quot;#SvgjsClipPath1051&quot;)" x="380.73" y="259.83" fill="url(#SvgjsPattern1052)" transform="rotate(149.95, 446.73, 325.83)"></rect><circle r="92.6964037586779" cx="451.29" cy="11.38" fill="rgba(252, 159, 143, 1)"></circle><rect width="132" height="132" clip-path="url(&quot;#SvgjsClipPath1053&quot;)" x="72.56" y="69.04" fill="url(#SvgjsPattern1054)" transform="rotate(286.34, 138.56, 135.04)"></rect><path d="M793.52 181.74a5.6 5.6 0 1 0-6.93 8.8 5.6 5.6 0 1 0 6.93-8.8zM783.62 194.31a5.6 5.6 0 1 0-6.94 8.79 5.6 5.6 0 1 0 6.94-8.79zM773.71 206.87a5.6 5.6 0 1 0-6.93 8.8 5.6 5.6 0 1 0 6.93-8.8zM763.81 219.44a5.6 5.6 0 1 0-6.94 8.79 5.6 5.6 0 1 0 6.94-8.79z" fill="rgba(252, 159, 143, 1)"></path><path d="M600.37 66.85L593.43 56.08 602.42 46.96 595.48 36.19 604.46 27.06 597.53 16.29 606.51 7.17M608.32 67.67L601.39 56.9 610.37 47.78 603.44 37.01 612.42 27.88 605.49 17.11 614.47 7.99M616.28 68.49L609.35 57.72 618.33 48.6 611.4 37.83 620.38 28.7 613.45 17.93 622.43 8.81" stroke="rgba(252, 159, 143, 1)" stroke-width="1.14" stroke-dasharray="2, 2"></path><path d="M499.61 8.07a5.6 5.6 0 1 0 1.57 11.09 5.6 5.6 0 1 0-1.57-11.09zM501.86 23.91a5.6 5.6 0 1 0 1.57 11.09 5.6 5.6 0 1 0-1.57-11.09zM504.11 39.75a5.6 5.6 0 1 0 1.57 11.09 5.6 5.6 0 1 0-1.57-11.09zM506.35 55.59a5.6 5.6 0 1 0 1.58 11.09 5.6 5.6 0 1 0-1.58-11.09zM479.27-21.37a5.6 5.6 0 1 0 1.57 11.09 5.6 5.6 0 1 0-1.57-11.09zM481.52-5.53a5.6 5.6 0 1 0 1.57 11.09 5.6 5.6 0 1 0-1.57-11.09zM483.77 10.32a5.6 5.6 0 1 0 1.57 11.08 5.6 5.6 0 1 0-1.57-11.08zM486.02 26.16a5.6 5.6 0 1 0 1.57 11.09 5.6 5.6 0 1 0-1.57-11.09z" stroke="rgba(252, 159, 143, 1)" stroke-width="2.8" stroke-dasharray="2, 2"></path><rect width="229.68" height="229.68" clip-path="url(&quot;#SvgjsClipPath1055&quot;)" x="920.16" y="387.72" fill="url(#SvgjsPattern1056)" transform="rotate(318.18, 1035, 502.56)"></rect><rect width="317.76" height="317.76" clip-path="url(&quot;#SvgjsClipPath1057&quot;)" x="220.73" y="208.66" fill="url(#SvgjsPattern1058)" transform="rotate(343.71, 379.61, 367.54)"></rect><circle r="46.666666666666664" cx="1270.48" cy="489.65" fill="rgba(252, 159, 143, 1)"></circle><rect width="216" height="216" clip-path="url(&quot;#SvgjsClipPath1059&quot;)" x="468.01" y="43.25" fill="url(#SvgjsPattern1060)" transform="rotate(52.22, 576.01, 151.25)"></rect></g><defs><mask id="SvgjsMask1048"><rect width="1440" height="560" fill="#ffffff"></rect></mask><pattern x="0" y="0" width="6" height="6" patternUnits="userSpaceOnUse" id="SvgjsPattern1050"><path d="M0 6L3 0L6 6" stroke="rgba(252, 159, 143, 1)" fill="none"></path></pattern><clipPath id="SvgjsClipPath1049"><circle r="60" cx="312.5" cy="223.26"></circle></clipPath><pattern x="0" y="0" width="132" height="6" patternUnits="userSpaceOnUse" id="SvgjsPattern1052"><rect width="132" height="3" x="0" y="0" fill="rgba(252, 159, 143, 1)"></rect><rect width="132" height="3" x="0" y="3" fill="rgba(0, 0, 0, 0)"></rect></pattern><clipPath id="SvgjsClipPath1051"><circle r="33" cx="446.73" cy="325.83"></circle></clipPath><pattern x="0" y="0" width="6" height="6" patternUnits="userSpaceOnUse" id="SvgjsPattern1054"><path d="M3 1L3 5M1 3L5 3" stroke="rgba(252, 159, 143, 1)" fill="none" stroke-width="1"></path></pattern><clipPath id="SvgjsClipPath1053"><circle r="33" cx="138.56" cy="135.04"></circle></clipPath><pattern x="0" y="0" width="229.68" height="10.44" patternUnits="userSpaceOnUse" id="SvgjsPattern1056"><rect width="229.68" height="5.22" x="0" y="0" fill="rgba(252, 159, 143, 1)"></rect><rect width="229.68" height="5.22" x="0" y="5.22" fill="rgba(0, 0, 0, 0)"></rect></pattern><clipPath id="SvgjsClipPath1055"><circle r="57.42" cx="1035" cy="502.56"></circle></clipPath><pattern x="0" y="0" width="317.76" height="13.24" patternUnits="userSpaceOnUse" id="SvgjsPattern1058"><rect width="317.76" height="6.62" x="0" y="0" fill="rgba(252, 159, 143, 1)"></rect><rect width="317.76" height="6.62" x="0" y="6.62" fill="rgba(0, 0, 0, 0)"></rect></pattern><clipPath id="SvgjsClipPath1057"><circle r="79.44" cx="379.61" cy="367.54"></circle></clipPath><pattern x="0" y="0" width="216" height="6" patternUnits="userSpaceOnUse" id="SvgjsPattern1060"><rect width="216" height="3" x="0" y="0" fill="rgba(252, 159, 143, 1)"></rect><rect width="216" height="3" x="0" y="3" fill="rgba(0, 0, 0, 0)"></rect></pattern><clipPath id="SvgjsClipPath1059"><circle r="54" cx="576.01" cy="151.25"></circle></clipPath></defs></svg>